<svg width="64" height="64" viewBox="0 0 64 64" fill="none" xmlns="http://www.w3.org/2000/svg">
  <rect width="64" height="64" rx="18" fill="#02050D"/>
  <rect x="7" y="7" width="50" height="50" rx="14" stroke="url(#g)" stroke-width="2"/>
  <path d="M20 44V20h8.6c2.6 0 4.7.6 6.2 1.9 1.5 1.2 2.3 2.9 2.3 5.1 0 2.2-.8 3.9-2.3 5.1-1.5 1.2-3.6 1.8-6.2 1.8H25V44h-5zm5-15h3.2c1.4 0 2.4-.3 3.1-.8.7-.5 1-1.3 1-2.3 0-1-.3-1.8-1-2.3-.7-.5-1.7-.8-3.1-.8H25v6.2zm18 15V20h5v24h-5z" fill="white"/>
  <defs>
    <linearGradient id="g" x1="7" y1="7" x2="57" y2="57" gradientUnits="userSpaceOnUse">
      <stop stop-color="#3B82F6"/>
      <stop offset="1" stop-color="#8B5CF6"/>
    </linearGradient>
  </defs>
</svg>
